<svg width="40" height="40" viewBox="0 0 40 40" fill="none" xmlns="http://www.w3.org/2000/svg">
<circle cx="20" cy="20" r="20" fill="white"/>
<circle cx="20" cy="20" r="19.5" stroke="#333333" stroke-opacity="0.2"/>
<rect width="24" height="24" transform="translate(8 8)" fill="white"/>
<path d="M26.053 14.7601L26.1061 14.707L26.053 14.654L25.346 13.947L25.293 13.8939L25.2399 13.947L20 19.1869L14.7601 13.947L14.707 13.8939L14.654 13.947L13.947 14.654L13.8939 14.707L13.947 14.7601L19.1869 20L13.947 25.2399L13.8939 25.293L13.947 25.346L14.654 26.053L14.707 26.1061L14.7601 26.053L20 20.8131L25.2399 26.053L25.293 26.1061L25.346 26.053L26.053 25.346L26.1061 25.293L26.053 25.2399L20.8131 20L26.053 14.7601Z" fill="#333333" stroke="#333333" stroke-width="0.15"/>
</svg>
